<?xml version="1.0" encoding="utf-8" standalone="yes"?>
<!DOCTYPE svg PUBLIC "-//W3C//DTD SVG 1.1//EN" "http://www.w3.org/Graphics/SVG/1.1/DTD/svg11.dtd">
<svg style="fill:none;stroke:none;fill-rule:evenodd;clip-rule:evenodd;stroke-linecap:round;stroke-linejoin:round;stroke-miterlimit:1.5;" version="1.1" xmlns="http://www.w3.org/2000/svg" xmlns:xlink="http://www.w3.org/1999/xlink" width="876" height="522" viewBox="0 0 876 522"><style class="text-font-style fontImports" data-font-family="Roboto">@import url(https://fonts.googleapis.com/css2?family=Roboto:wght@400;700&amp;amp;display=block);</style><g id="items" style="isolation: isolate"><g id="blend" style="mix-blend-mode: normal"><g id="g-root-sy_7_cu_4j6kal6q2lfn-fill" data-item-order="-96762" transform="translate(344.699462890625, 347.82666015625)"><g id="sy_7_cu_4j6kal6q2lfn-fill-merged" stroke="none" fill="#a6da37" fill-opacity="1"><g><path d="M91.941 28.366C86.491 29.621 80.9 28.339 76.67 25.358C73.846 34.897 65.286 41.83 55.164 41.83C48.687 41.83 42.852 38.991 38.748 34.45C33.698 34.401 28.875 33.639 28.875 33.639C22.188 32.279 16.018 29.503 10.691 25.645C10.239 27.89 10 30.213 10 32.591C10 52.013 25.824 67.761 45.345 67.761C47.396 67.761 49.406 67.584 51.36 67.253C51.36 67.309 51.36 67.363 51.36 67.417C51.36 85.508 66.098 100.173 84.279 100.173C92.857 100.173 100.669 96.907 106.528 91.558 V10C106.592 18.576 100.691 26.355 91.943 28.366 M130.663 28.366C136.113 29.621 141.703 28.339 145.934 25.358C148.757 34.897 157.317 41.83 167.44 41.83C173.916 41.83 179.751 38.991 183.856 34.45C188.906 34.401 193.729 33.639 193.729 33.639C200.415 32.279 206.586 29.503 211.912 25.645C212.364 27.89 212.604 30.213 212.604 32.591C212.604 52.013 196.78 67.761 177.258 67.761C175.207 67.761 173.198 67.584 171.243 67.253C171.243 67.309 171.243 67.363 171.243 67.417C171.243 85.508 156.505 100.173 138.324 100.173C129.747 100.173 121.935 96.907 116.075 91.558 V10C116.011 18.576 121.913 26.355 130.66 28.366"></path></g></g></g><g id="g-root-sy_7_line_1uonm0t6q2m18-fill" data-item-order="-96757" transform="translate(278, 428)"></g><g id="g-root-sy_6_cu_1q9gkzh6q2jnp-fill" data-item-order="-96754" transform="translate(450.7791748046875, 251.037109375)"><g id="sy_6_cu_1q9gkzh6q2jnp-fill-merged" stroke="none" fill="#ffe711" fill-opacity="1"><g><path d="M117.184 58.374C117.085 58.227 116.982 58.084 116.881 57.939C113.489 68.429 106.487 77.305 97.322 83.113C100.491 88.217 100.825 94.841 97.618 100.414C93.593 107.416 85.297 110.466 77.863 108.177C70.465 121.126 54.392 127.403 39.852 122.147C42.675 131.686 51.235 138.62 61.357 138.62C67.834 138.62 73.669 135.781 77.774 131.239C82.824 131.19 87.647 130.429 87.647 130.429C94.333 129.068 100.504 126.293 105.83 122.435C117.582 113.922 125.221 100.126 125.221 84.555C125.221 74.856 122.259 65.848 117.184 58.374 M77.865 108.177C85.299 110.464 93.595 107.414 97.621 100.414C100.825 94.841 100.491 88.217 97.325 83.114C106.489 77.308 113.492 68.429 116.883 57.939C118.344 53.415 119.142 48.594 119.142 43.586C119.142 30.412 113.672 18.51 104.87 10C102.965 20.814 96.542 30.078 87.61 35.801C87.642 36.297 87.659 36.795 87.659 37.299C87.659 49.66 77.589 59.681 65.166 59.681C65.561 61.265 65.793 62.92 65.793 64.63C65.793 74.837 57.477 83.109 47.222 83.109C38.807 83.109 31.701 77.541 29.418 69.908C27.782 70.19 26.108 70.335 24.4 70.335C19.165 70.335 14.253 68.967 10.001 66.572 V106.785C9.936 115.361 15.838 123.14 24.585 125.151C30.035 126.406 35.626 125.124 39.856 122.143C54.397 127.401 70.47 121.121 77.868 108.173"></path></g></g></g><g id="g-root-sy_6_line_1q9gkzh6q2jnq-fill" data-item-order="-96749" transform="translate(572, 350)"></g><g id="g-root-sy_5_cu_1hdtkql6q2kgf-fill" data-item-order="-96746" transform="translate(326, 251.0419921875)"><g id="sy_5_cu_1hdtkql6q2kgf-fill-merged" stroke="none" fill="#f79438" fill-opacity="1"><g><path d="M57.358 108.172C49.924 110.459 41.628 107.409 37.602 100.409C34.399 94.836 34.732 88.212 37.899 83.109C28.734 77.303 21.732 68.424 18.34 57.934C18.239 58.079 18.135 58.222 18.037 58.369C12.962 65.843 10 74.852 10 84.55C10 100.122 17.639 113.917 29.391 122.43C34.717 126.288 40.888 129.061 47.574 130.424C47.574 130.424 52.397 131.186 57.447 131.235C61.552 135.778 67.387 138.615 73.863 138.615C83.986 138.615 92.546 131.682 95.369 122.142C80.829 127.401 64.756 121.121 57.358 108.172 M110.825 70.335C109.117 70.335 107.444 70.19 105.817 69.91C103.524 77.541 96.418 83.109 88.004 83.109C77.746 83.109 69.433 74.834 69.433 64.63C69.433 62.92 69.667 61.265 70.102 59.693C57.637 59.681 47.567 49.66 47.567 37.299C47.567 36.795 47.584 36.297 47.616 35.801C38.684 30.078 32.261 20.812 30.356 10C21.554 18.508 16.084 30.41 16.084 43.586C16.084 48.594 16.879 53.415 18.343 57.939C21.734 68.429 28.736 77.305 37.901 83.114C34.732 88.217 34.399 94.841 37.605 100.414C41.631 107.416 49.926 110.466 57.361 108.177C64.758 121.126 80.831 127.403 95.372 122.147C99.602 125.129 105.193 126.411 110.643 125.156C119.39 123.142 125.292 115.364 125.228 106.79 V66.577C120.977 68.972 116.063 70.34 110.828 70.34"></path></g></g></g><g id="g-root-sy_5_line_1ltn2v16q2kg0-fill" data-item-order="-96741" transform="translate(278, 350)"></g><g id="g-root-sy_2_cu_1cy02m56q2l8p-fill" data-item-order="-96738" transform="translate(450.77484130859375, 158)"><g id="sy_2_cu_1cy02m56q2l8p-fill-merged" stroke="none" fill="#8769fd" fill-opacity="1"><g><path d="M61.771 59.894C62.816 63.033 62.813 66.538 61.517 69.861C59.481 75.085 54.786 78.499 49.569 79.167L46.592 79.344C40.774 79.845 35.462 83.548 33.209 89.33C31.718 93.154 31.834 97.201 33.226 100.741C30.24 99.127 26.888 98.184 23.25 98.184C18.229 98.184 13.618 99.93 10 102.848 V33.828C10 20.667 20.722 10 33.947 10C44.257 10 53.046 16.484 56.42 25.579C71.094 29.81 82.189 42.42 84.131 57.861C81.266 56.311 77.966 55.424 74.476 55.424C69.655 55.424 65.244 57.097 61.769 59.897"></path></g></g></g><g id="g-root-sy_2_line_1cy02m56q2l8q-fill" data-item-order="-96733" transform="translate(518, 158)"></g><g id="g-root-sy_1_cu_18i6khp6q2m0z-fill" data-item-order="-96730" transform="translate(367.0938415527344, 158)"><g id="sy_1_cu_18i6khp6q2m0z-fill-merged" stroke="none" fill="#cb68f9" fill-opacity="1"><g><path d="M32.36 59.894C31.316 63.033 31.318 66.538 32.614 69.861C34.65 75.085 39.345 78.499 44.563 79.167L47.54 79.344C53.357 79.845 58.669 83.548 60.922 89.33C62.413 93.154 62.297 97.201 60.905 100.741C63.892 99.127 67.244 98.184 70.882 98.184C75.902 98.184 80.513 99.93 84.131 102.848 V33.828C84.131 20.667 73.409 10 60.184 10C49.875 10 41.085 16.484 37.711 25.579C23.037 29.81 11.943 42.42 10 57.861C12.866 56.311 16.166 55.424 19.656 55.424C24.476 55.424 28.887 57.097 32.362 59.897"></path></g></g></g><g id="g-root-sy_1_line_18i6khp6q2m10-fill" data-item-order="-96725" transform="translate(277.9999694824219, 158)"></g><g id="g-root-sy_4_cu_zn61bx6q2jnx-fill" data-item-order="-96722" transform="translate(450.7747802734375, 203.424560546875)"><g id="sy_4_cu_zn61bx6q2jnx-fill-merged" stroke="none" fill="#fb6762" fill-opacity="1"><g><path d="M63.05 60.228C62.981 64.335 61.944 68.488 59.841 72.349C52.859 85.169 36.751 89.929 23.867 82.981C15.423 78.428 10.459 69.974 10.005 61.081 V114.19C14.255 116.585 19.17 117.953 24.405 117.953C26.113 117.953 27.786 117.808 29.413 117.528C31.706 125.159 38.812 130.726 47.226 130.726C57.484 130.726 65.797 122.452 65.797 112.247C65.797 110.538 65.563 108.882 65.128 107.311C77.593 107.298 87.663 97.278 87.663 84.916C87.663 84.413 87.614 83.418 87.614 83.418C96.547 77.696 102.969 68.429 104.875 57.618C105.26 55.434 105.462 53.187 105.462 50.895C105.457 35.933 96.919 22.963 84.432 16.536C84.432 26.053 80.987 35.513 75.256 42.25C71.092 43.569 67.414 46.43 65.168 50.554C63.939 52.809 63.262 55.213 63.092 57.615C63.26 55.213 63.939 52.809 65.165 50.554C67.411 46.428 71.089 43.569 75.253 42.25C80.984 35.516 84.43 26.053 84.43 16.538C84.403 15.153 84.302 13.785 84.134 12.436C81.268 10.887 77.968 10 74.478 10C69.658 10 65.247 11.673 61.771 14.472C62.816 17.611 62.813 21.116 61.517 24.439C59.481 29.663 54.786 33.077 49.569 33.745L46.592 33.922C40.774 34.423 35.462 38.126 33.209 43.908C31.718 47.732 31.834 51.78 33.226 55.319C30.24 53.705 26.888 52.762 23.25 52.762C18.229 52.762 13.618 54.508 10 57.426 V61.081C10.454 69.974 15.418 78.428 23.862 82.981C36.748 89.929 52.856 85.169 59.839 72.349C61.942 68.488 62.979 64.335 63.048 60.228"></path></g></g></g><g id="g-root-sy_4_line_zn61bx6q2jny-fill" data-item-order="-96717" transform="translate(562, 254)"></g><g id="g-root-sy_3_cu_v7cj7h6q2kg7-fill" data-item-order="-96714" transform="translate(345.77069091796875, 203.42431640625)"><g id="sy_3_cu_v7cj7h6q2kg7-fill-merged" stroke="none" fill="#f366bb" fill-opacity="1"><g><path d="M52.365 57.615C52.195 55.213 51.516 52.809 50.289 50.554C48.043 46.428 44.365 43.569 40.201 42.25C34.47 35.516 31.024 26.053 31.024 16.538C18.535 22.965 10 35.938 10 50.893C10 53.187 10.202 55.432 10.587 57.615C12.493 68.429 18.915 77.693 27.848 83.416C27.848 83.416 27.799 84.41 27.799 84.914C27.799 97.275 37.869 107.296 50.292 107.296C49.897 108.88 49.665 110.535 49.665 112.245C49.665 122.452 57.98 130.724 68.236 130.724C76.65 130.724 83.756 125.156 86.039 117.523C87.676 117.805 89.349 117.95 91.057 117.95C96.292 117.95 101.204 116.582 105.457 114.187 V61.078C105.003 69.971 100.039 78.425 91.595 82.978C78.706 89.929 62.598 85.169 55.616 72.349C53.513 68.488 52.476 64.335 52.407 60.228C52.476 64.335 53.51 68.488 55.616 72.349C62.598 85.169 78.706 89.929 91.59 82.981C100.034 78.428 104.998 69.974 105.452 61.081 V57.426C101.834 54.508 97.223 52.762 92.203 52.762C88.567 52.762 85.212 53.705 82.226 55.319C83.618 51.78 83.731 47.73 82.243 43.908C79.99 38.126 74.678 34.423 68.86 33.922L65.884 33.745C60.666 33.077 55.971 29.663 53.935 24.439C52.639 21.116 52.636 17.611 53.681 14.472C50.205 11.673 45.795 10 40.974 10C37.484 10 34.184 10.889 31.318 12.436C31.148 13.782 31.049 15.15 31.022 16.538C31.022 26.055 34.468 35.516 40.199 42.253C44.365 43.569 48.043 46.43 50.289 50.554C51.518 52.809 52.195 55.213 52.365 57.615"></path></g></g></g><g id="g-root-sy_3_line_qrj1316q2l8g-fill" data-item-order="-96709" transform="translate(278, 254)"></g><g id="g-root-ic_mosc_dgozst6q2jnm-fill" data-item-order="-1296" transform="translate(230, 140)"><g id="ic_mosc_dgozst6q2jnm-fill-merged" stroke="none" fill="#f4f4f4" fill-opacity="1"><g><path d="M10 12.625C10 11.176 11.176 10 12.625 10 H43.375C44.824 10 46 11.176 46 12.625 V43.375C46 44.825 44.825 46 43.375 46 H12.625C11.175 46 10 44.825 10 43.375 V12.625 M20.5 37.375C19.879 37.375 19.375 37.879 19.375 38.5C19.375 39.121 19.879 39.625 20.5 39.625 H35.5C36.121 39.625 36.625 39.121 36.625 38.5C36.625 37.879 36.121 37.375 35.5 37.375 H20.5 M34.167 28.375C33.521 28.375 33.208 28.82 33.208 29.125 V32.875C33.208 33.181 33.523 33.625 34.168 33.625C34.726 33.625 35.125 33.289 35.203 33.09C35.438 32.524 36.083 32.25 36.653 32.474C37.223 32.698 37.51 33.337 37.297 33.912C36.802 35.168 35.422 35.876 34.167 35.876C32.509 35.876 30.958 34.64 30.958 32.876 V29.127C30.958 27.36 32.509 26.127 34.168 26.127C35.421 26.127 36.803 26.831 37.297 28.09C37.453 28.466 37.394 28.897 37.142 29.217C36.891 29.537 36.485 29.696 36.083 29.633C35.681 29.57 35.344 29.294 35.203 28.912C35.125 28.713 34.726 28.377 34.168 28.377 M27.438 34.75 V24.24L24.93 30.415C24.693 30.996 24.128 31.376 23.5 31.376C22.872 31.376 22.307 30.996 22.071 30.415L19.563 24.24 V34.75C19.563 35.371 19.059 35.875 18.438 35.875C17.816 35.875 17.313 35.371 17.313 34.75 V21.925C17.312 21.065 17.921 20.326 18.765 20.161C19.609 19.996 20.451 20.452 20.774 21.248L23.5 27.953L26.226 21.247C26.549 20.451 27.391 19.995 28.234 20.159C29.078 20.324 29.687 21.063 29.688 21.922 V34.75C29.688 35.371 29.184 35.875 28.563 35.875C27.941 35.875 27.438 35.371 27.438 34.75"></path></g></g></g><g id="g-root-ic_1_1lpwbi56pye4m-fill" data-item-order="-1296" transform="translate(626, 140)"><g id="ic_1_1lpwbi56pye4m-fill-merged" stroke="none" fill="#f4f4f4" fill-opacity="1"><g><path d="M42.25 10 H13.75C11.679 10 10 11.679 10 13.75 V42.25C10 44.321 11.679 46 13.75 46 H42.25C44.321 46 46 44.321 46 42.25 V13.75C46 11.679 44.321 10 42.25 10 M18.25 28.75C18.247 29.048 18.072 29.317 17.8 29.44C17.705 29.481 17.603 29.502 17.5 29.5C17.302 29.499 17.113 29.418 16.975 29.275L13.975 26.275C13.689 25.983 13.689 25.517 13.975 25.225L16.975 22.225C17.176 21.975 17.516 21.884 17.815 22C18.087 22.123 18.262 22.392 18.265 22.69 V28.75 M21.25 43.75C20.007 43.75 19 42.743 19 41.5C19 40.257 20.007 39.25 21.25 39.25C22.493 39.25 23.5 40.257 23.5 41.5C23.5 42.737 22.502 43.742 21.265 43.75 M28 43.75C26.757 43.75 25.75 42.743 25.75 41.5C25.75 40.257 26.757 39.25 28 39.25C29.243 39.25 30.25 40.257 30.25 41.5C30.25 42.743 29.243 43.75 28 43.75 M34.75 43.75C33.507 43.75 32.5 42.743 32.5 41.5C32.5 40.257 33.507 39.25 34.75 39.25C35.993 39.25 37 40.257 37 41.5C37 42.737 36.002 43.742 34.765 43.75 M42.04 26.275L39.04 29.275C38.897 29.419 38.703 29.5 38.5 29.5C38.406 29.521 38.309 29.521 38.215 29.5C37.938 29.382 37.755 29.112 37.75 28.81 V22.81C37.705 22.462 37.903 22.128 38.23 22C38.512 21.877 38.842 21.942 39.055 22.165L42.055 25.165C42.211 25.307 42.301 25.509 42.301 25.72C42.301 25.931 42.211 26.133 42.055 26.275"></path></g></g></g><g id="g-root-ic_down_1ltn2v16q3xu6-fill" data-item-order="-1296" transform="translate(230, 428)"><g id="ic_down_1ltn2v16q3xu6-fill-merged" stroke="none" fill="#f4f4f4" fill-opacity="1"><g><path d="M19.75 26.5C14.365 26.5 10 30.865 10 36.25C10 41.635 14.365 46 19.75 46C25.135 46 29.5 41.635 29.5 36.25C29.492 30.869 25.131 26.508 19.75 26.5 M23.335 37.465L20.335 41.215C20.19 41.387 19.976 41.487 19.75 41.487C19.524 41.487 19.31 41.387 19.165 41.215L16.165 37.465C15.988 37.238 15.953 36.931 16.075 36.67C16.201 36.412 16.463 36.249 16.75 36.25 H18.07C18.169 36.25 18.25 36.169 18.25 36.07 V31.75C18.25 30.922 18.922 30.25 19.75 30.25C20.578 30.25 21.25 30.922 21.25 31.75 V36.07C21.257 36.166 21.334 36.243 21.43 36.25 H22.75C23.037 36.249 23.299 36.412 23.425 36.67C23.547 36.931 23.512 37.238 23.335 37.465 M29.785 20.5C31.017 20.492 32.01 19.487 32.005 18.255C31.999 17.023 30.997 16.027 29.765 16.03C28.533 16.033 27.535 17.033 27.535 18.265C27.535 18.86 27.773 19.431 28.195 19.851C28.617 20.27 29.19 20.504 29.785 20.5 M45.115 14.5L41.5 10.885C40.94 10.322 40.179 10.003 39.385 10 H22C20.343 10 19 11.343 19 13 V23.92C19.007 24.118 19.162 24.28 19.36 24.295C19.915 24.295 20.86 24.295 21.595 24.415C21.7 24.423 21.803 24.388 21.88 24.316C21.957 24.245 22 24.145 22 24.04 V13.75C22 13.336 22.336 13 22.75 13 H39.07C39.269 12.998 39.46 13.079 39.595 13.225L42.775 16.405C42.921 16.54 43.002 16.731 43 16.93 V37C43 37.414 42.664 37.75 42.25 37.75 H31.96C31.78 37.755 31.629 37.887 31.6 38.065C31.463 38.811 31.262 39.543 31 40.255C30.954 40.368 30.969 40.496 31.038 40.596C31.108 40.696 31.223 40.754 31.345 40.75 H43C44.657 40.75 46 39.407 46 37.75 V16.615C45.997 15.821 45.678 15.06 45.115 14.5 M40.72 29.35C40.771 29.262 40.771 29.153 40.72 29.065L35.845 21.31C35.751 21.141 35.573 21.038 35.38 21.04C35.184 21.042 35.003 21.144 34.9 21.31L32.185 25.645C32.138 25.733 32.045 25.786 31.945 25.78C31.85 25.784 31.762 25.731 31.72 25.645L30.745 24.145C30.64 23.982 30.459 23.885 30.265 23.89C30.077 23.891 29.902 23.987 29.8 24.145L27.925 27.145C27.822 27.283 27.822 27.472 27.925 27.61C28.483 28.16 28.985 28.763 29.425 29.41C29.491 29.502 29.597 29.558 29.71 29.56 H40.33C40.496 29.609 40.669 29.515 40.72 29.35"></path></g></g></g><g id="g-root-ic_node_v97ygt6q2jgj-fill" data-item-order="-1296" transform="translate(230, 236)"><g id="ic_node_v97ygt6q2jgj-fill-merged" stroke="none" fill="#f4f4f4" fill-opacity="1"><g><path d="M42.625 18.28L29.5 10.42C28.572 9.884 27.428 9.884 26.5 10.42L13.375 18.28C12.466 18.804 11.897 19.766 11.875 20.815 V35.185C11.897 36.234 12.466 37.196 13.375 37.72L17.305 40.075C18.752 40.947 20.557 40.971 22.027 40.138C23.497 39.305 24.404 37.745 24.4 36.055 V22.18C24.4 21.352 23.728 20.68 22.9 20.68C22.072 20.68 21.4 21.352 21.4 22.18 V36.055C21.41 36.674 21.082 37.248 20.545 37.555C20.02 37.855 19.375 37.855 18.85 37.555L14.935 35.185 V20.86L28 13L41.095 20.815 V35.14L28 43L25.45 41.5C24.99 41.138 24.361 41.076 23.84 41.342C23.318 41.608 22.999 42.154 23.023 42.739C23.047 43.324 23.409 43.842 23.95 44.065L26.53 45.565C27.458 46.101 28.602 46.101 29.53 45.565L42.64 37.705C43.549 37.181 44.118 36.219 44.14 35.17 V20.815C44.115 19.763 43.54 18.801 42.625 18.28 M33.265 32.14C32.149 32.275 31.021 32.275 29.905 32.14C29.26 32.064 28.775 31.515 28.78 30.865C28.78 30.037 28.108 29.365 27.28 29.365C26.452 29.365 25.78 30.037 25.78 30.865C25.783 33.015 27.37 34.833 29.5 35.125C30.177 35.204 30.858 35.244 31.54 35.245C32.227 35.244 32.913 35.204 33.595 35.125C35.737 34.847 37.34 33.025 37.345 30.865C37.351 28.901 35.936 27.22 34 26.89L29.635 26.155C29.134 26.074 28.766 25.642 28.765 25.135C28.76 24.485 29.245 23.936 29.89 23.86C31.006 23.725 32.134 23.725 33.25 23.86C33.895 23.936 34.38 24.485 34.375 25.135C34.375 25.963 35.047 26.635 35.875 26.635C36.703 26.635 37.375 25.963 37.375 25.135C37.37 22.975 35.767 21.153 33.625 20.875C32.264 20.725 30.891 20.725 29.53 20.875C27.382 21.147 25.771 22.97 25.765 25.135C25.762 27.109 27.192 28.793 29.14 29.11L33.505 29.845C34.009 29.92 34.381 30.355 34.375 30.865C34.38 31.509 33.904 32.057 33.265 32.14"></path></g></g></g><g id="g-root-ic_2_1qcl1kt6pwydh-fill" data-item-order="-1296" transform="translate(626, 236)"><g id="ic_2_1qcl1kt6pwydh-fill-merged" stroke="none" fill="#f4f4f4" fill-opacity="1"><g><path d="M24.425 32.031 H11.125C10.504 32.031 10 32.534 10 33.156 V43.041C10 44.472 11.161 45.632 12.592 45.632 H43.408C44.839 45.632 46 44.472 46 43.039 V33.154C46 32.533 45.496 32.029 44.875 32.029 H31.575 V35.951C31.518 37.885 29.935 39.424 28 39.424C26.065 39.424 24.482 37.885 24.426 35.951 V32.031 M26.675 35.951 V32.122 H29.325 V35.95C29.325 36.682 28.732 37.275 28 37.275C27.268 37.275 26.675 36.682 26.675 35.95 M19.57 12.928C19.448 12.906 19.324 12.946 19.237 13.034C19.15 13.123 19.113 13.248 19.136 13.369L20.028 18.013L18.52 20.237L16.292 18.73L15.401 14.086C15.378 13.965 15.297 13.863 15.185 13.814C15.072 13.764 14.942 13.773 14.837 13.837C12.461 15.294 11.211 18.051 11.683 20.799C12.155 23.546 14.253 25.729 16.979 26.309L17.716 30.157 H23.116L22.188 25.312C24.51 23.766 25.655 20.961 25.078 18.232C24.501 15.502 22.319 13.4 19.57 12.926 M37.424 30.156 H32.241L33.859 21.468L27.885 20.354C27.681 20.317 27.547 20.121 27.584 19.918L28.122 17.047C28.159 16.844 28.355 16.71 28.558 16.747C31.722 17.337 33.775 15.944 34.1 14.198C34.138 13.995 34.334 13.861 34.537 13.899L44.587 15.771C44.685 15.789 44.772 15.845 44.828 15.927C44.884 16.009 44.905 16.111 44.887 16.208L43.639 22.909C43.601 23.112 43.406 23.246 43.202 23.209L38.953 22.417L37.424 30.156"></path></g></g></g><g id="g-root-ic_conv_qwitrx6q2kn8-fill" data-item-order="-1296" transform="translate(230, 332)"><g id="ic_conv_qwitrx6q2kn8-fill-merged" stroke="none" fill="#f4f4f4" fill-opacity="1"><g><path d="M38.701 14.498 H17.263C16.452 14.498 15.794 15.156 15.794 15.967 V22.385 H17.459C17.914 22.386 18.324 22.66 18.498 23.08C18.672 23.5 18.576 23.984 18.255 24.306L15.154 27.404C14.715 27.843 14.003 27.843 13.564 27.405L10.465 24.307C10.144 23.985 10.048 23.502 10.222 23.082C10.396 22.661 10.805 22.387 11.26 22.387 H12.795 V15.967C12.795 13.499 14.796 11.498 17.264 11.498 H38.7C41.168 11.498 43.17 13.499 43.17 15.967 V17.809C43.17 18.637 42.498 19.309 41.67 19.309C40.841 19.309 40.17 18.637 40.17 17.809 V15.967C40.169 15.577 40.015 15.204 39.739 14.928C39.463 14.653 39.089 14.498 38.699 14.498 M43.17 27.732 H44.74C45.195 27.731 45.604 27.457 45.778 27.037C45.952 26.617 45.856 26.133 45.535 25.812L42.436 22.713C41.997 22.274 41.285 22.274 40.846 22.713L37.745 25.812C37.424 26.133 37.328 26.617 37.502 27.037C37.676 27.457 38.086 27.731 38.541 27.732 H40.168 V34.348C40.168 35.159 39.512 35.816 38.701 35.818 H24.463C24.158 35.818 23.86 35.91 23.61 36.083L15.795 41.482 V32.062C15.795 31.234 15.123 30.562 14.295 30.562C13.466 30.562 12.795 31.234 12.795 32.062 V41.512C12.795 43.918 15.495 45.334 17.474 43.967L24.93 38.817 H38.7C41.168 38.817 43.17 36.816 43.17 34.348 V27.733"></path></g></g></g><g id="g-root-tx_createvi_dg2p196pohky-fill" data-item-order="0" transform="translate(86, 338)"><g id="tx_createvi_dg2p196pohky-fill-merged" stroke="none" fill="#f4f4f4" fill-opacity="1"><g><text style="font: 20px Roboto, sans-serif; white-space: pre;" font-size="20px" font-family="Roboto, sans-serif"><tspan x="11.78" y="34" dominant-baseline="ideographic">Create Visuals</tspan></text></g></g></g><g id="g-root-ic_chec_7qgxp6pspor-fill" data-item-order="0" transform="translate(626, 332)"></g><g id="g-root-tx__1ut13y56pok5n-fill" data-item-order="0" transform="translate(674, 242)"><g id="tx__1ut13y56pok5n-fill-merged" stroke="none" fill="#f4f4f4" fill-opacity="1"><g><text style="font: 20px Roboto, sans-serif; white-space: pre;" font-size="20px" font-family="Roboto, sans-serif"><tspan x="12" y="34" dominant-baseline="ideographic">Tool</tspan></text></g></g></g><g id="g-root-tx_mcp_1lt0s3h6poidk-fill" data-item-order="0" transform="translate(170, 146)"><g id="tx_mcp_1lt0s3h6poidk-fill-merged" stroke="none" fill="#f4f4f4" fill-opacity="1"><g><text style="font: 20px Roboto, sans-serif; white-space: pre;" font-size="20px" font-family="Roboto, sans-serif"><tspan x="12.9" y="34" dominant-baseline="ideographic">MCP</tspan></text></g></g></g><g id="g-root-tx_zod_v6q8fx6poidl-fill" data-item-order="0" transform="translate(170, 242)"><g id="tx_zod_v6q8fx6poidl-fill-merged" stroke="none" fill="#f4f4f4" fill-opacity="1"><g><text style="font: 20px Roboto, sans-serif; white-space: pre;" font-size="20px" font-family="Roboto, sans-serif"><tspan x="21.53" y="34" dominant-baseline="ideographic">Zod</tspan></text></g></g></g><g id="g-root-tx_napkinai_qrj1316q2l8h-fill" data-item-order="0" transform="translate(350, 14)"><g id="tx_napkinai_qrj1316q2l8h-fill-merged" stroke="none" fill="#f4f4f4" fill-opacity="1"><g><text style="font: bold 25px Roboto, sans-serif; white-space: pre;" font-weight="bold" font-size="25px" font-family="Roboto, sans-serif"><tspan x="51.31" y="39.78" dominant-baseline="ideographic">Napkin AI </tspan><tspan x="16.32" y="69.78" dominant-baseline="ideographic">MCP(Unofficial)</tspan></text></g></g></g><g id="g-root-tx_download_1lu9q9p6pokjn-fill" data-item-order="0" transform="translate(50, 434)"><g id="tx_download_1lu9q9p6pokjn-fill-merged" stroke="none" fill="#f4f4f4" fill-opacity="1"><g><text style="font: 20px Roboto, sans-serif; white-space: pre;" font-size="20px" font-family="Roboto, sans-serif"><tspan x="16.99" y="34" dominant-baseline="ideographic">Download Visuals</tspan></text></g></g></g><g id="g-root-tx_stdio_mg30vx6pojd3-fill" data-item-order="0" transform="translate(674, 146)"><g id="tx_stdio_mg30vx6pojd3-fill-merged" stroke="none" fill="#f4f4f4" fill-opacity="1"><g><text style="font: 20px Roboto, sans-serif; white-space: pre;" font-size="20px" font-family="Roboto, sans-serif"><tspan x="12" y="34" dominant-baseline="ideographic">stdio</tspan></text></g></g></g><g id="g-root-tx_getvisua_1qbynnh6poirr-fill" data-item-order="0" transform="translate(674, 338)"><g id="tx_getvisua_1qbynnh6poirr-fill-merged" stroke="none" fill="#f4f4f4" fill-opacity="1"><g><text style="font: 20px Roboto, sans-serif; white-space: pre;" font-size="20px" font-family="Roboto, sans-serif"><tspan x="12" y="34" dominant-baseline="ideographic">Regenerate Visuals</tspan></text></g></g></g><g id="g-root-sy_7_cu_4j6kal6q2lfn-stroke" data-item-order="-96762" transform="translate(344.699462890625, 347.82666015625)"><g id="sy_7_cu_4j6kal6q2lfn-stroke" fill="none" stroke-linecap="round" stroke-linejoin="round" stroke-miterlimit="4" stroke="#2c2c2c" stroke-width="2" stroke-opacity="1"><g><path d="M 91.9409 28.3662C 86.491 29.6212 80.9004 28.3392 76.6698 25.3576C 73.8461 34.8968 65.2863 41.8302 55.164 41.8302C 48.6873 41.8302 42.8524 38.991 38.7477 34.4498C 33.6976 34.4007 28.8747 33.6393 28.8747 33.6393C 22.1882 32.2787 16.0176 29.5033 10.6911 25.6449C 10.2394 27.8897 10 30.2131 10 32.5906C 10 52.0129 25.8239 67.761 45.3453 67.761C 47.3964 67.761 49.4056 67.5841 51.3604 67.2526C 51.3604 67.3091 51.3604 67.3631 51.3604 67.4171C 51.3604 85.5083 66.0983 100.1733 84.2794 100.1733C 92.8566 100.1733 100.6686 96.9067 106.5282 91.5575L 106.5282 10C 106.5924 18.5765 100.6908 26.3547 91.9433 28.3662L 91.9409 28.3662ZM 130.66279 28.3662C 136.11269 29.6212 141.70319 28.3392 145.93379 25.3576C 148.75749 34.8968 157.31739 41.8302 167.43959 41.8302C 173.91629 41.8302 179.75129 38.991 183.85599 34.4498C 188.90599 34.4007 193.72899 33.6393 193.72899 33.6393C 200.41539 32.2787 206.58599 29.5033 211.91249 25.6449C 212.36419 27.8897 212.60359 30.2131 212.60359 32.5906C 212.60359 52.0129 196.77969 67.761 177.25829 67.761C 175.20719 67.761 173.19809 67.5841 171.24319 67.2526C 171.24319 67.3091 171.24319 67.3631 171.24319 67.4171C 171.24319 85.5083 156.50529 100.1733 138.32419 100.1733C 129.74699 100.1733 121.93499 96.9067 116.07539 91.5575L 116.07539 10C 116.01119 18.5765 121.91279 26.3547 130.66029 28.3662L 130.66279 28.3662ZM 51.360412 67.252713C 60.927312 65.619413 69.183612 60.159613 74.475512 52.514013C 74.475512 52.514013 74.478012 52.509113 74.480512 52.506613C 74.636012 52.509113 74.793912 52.511513 74.949412 52.511513C 87.979312 52.511513 98.541012 42.002213 98.541012 29.036813C 98.541012 27.872613 98.454612 26.725713 98.291712 25.605713M 106.523315 56.36499C 106.587415 64.94149 100.685915 72.71969 91.938415 74.73119M 49.427793 41.063912C 47.463093 41.032012 45.461293 41.405312 43.540993 42.233012C 39.036493 44.175712 36.052393 48.159412 35.210693 52.626912M 171.240781 67.252591C 161.673781 65.619291 153.417481 60.159491 148.125581 52.513891C 148.125581 52.513891 148.123081 52.508991 148.120681 52.506491C 147.965181 52.508991 147.807181 52.511391 147.651681 52.511391C 134.621781 52.511391 124.060181 42.002091 124.060181 29.036691C 124.060181 27.872491 124.146581 26.725591 124.309481 25.605591M 116.077831 56.364868C 116.013631 64.941368 121.915231 72.719568 130.662731 74.731068M 173.17334 41.063912C 175.13804 41.032012 177.13984 41.405312 179.06014 42.233012C 183.56464 44.175712 186.54874 48.159412 187.39044 52.626912"></path></g></g></g><g id="g-root-sy_7_line_1uonm0t6q2m18-stroke" data-item-order="-96757" transform="translate(278, 428)"><g id="sy_7_line_1uonm0t6q2m18-stroke" fill="none" stroke-linecap="round" stroke-linejoin="round" stroke-miterlimit="4" stroke="#f4f4f4" stroke-width="2" stroke-opacity="1"><g><path d="M 10 28L 94 28L 110.59 11.41"></path><path d="M 110.9 20.3L 110.9 11.1L 101.7 11.1" stroke-dasharray="none"></path></g></g></g><g id="g-root-sy_6_cu_1q9gkzh6q2jnp-stroke" data-item-order="-96754" transform="translate(450.7791748046875, 251.037109375)"><g id="sy_6_cu_1q9gkzh6q2jnp-stroke" fill="none" stroke-linecap="round" stroke-linejoin="round" stroke-miterlimit="4" stroke="#2c2c2c" stroke-width="2" stroke-opacity="1"><g><path d="M 117.184293 58.373893C 117.085493 58.226593 116.981893 58.084093 116.880693 57.939193C 113.489293 68.428893 106.486893 77.304993 97.322293 83.113493C 100.491493 88.217193 100.824693 94.841093 97.618493 100.413793C 93.592793 107.415993 85.296993 110.466393 77.862593 108.177293C 70.465293 121.125593 54.391993 127.403193 39.851593 122.147293C 42.675293 131.686493 51.235193 138.619893 61.357393 138.619893C 67.834093 138.619893 73.669093 135.780693 77.773793 131.239493C 82.823793 131.190393 87.646693 130.428993 87.646693 130.428993C 94.333193 129.068393 100.503793 126.292993 105.830293 122.434593C 117.581593 113.921993 125.220893 100.126493 125.220893 84.555193C 125.220893 74.856393 122.258993 65.847593 117.184293 58.373893ZM 77.865031 108.1775C 85.299331 110.464 93.595131 107.4137 97.620831 100.414C 100.824631 94.8412 100.491431 88.2173 97.324731 83.1137C 106.489331 77.3076 113.491731 68.429 116.883031 57.9393C 118.344231 53.4153 119.141531 48.5941 119.141531 43.5863C 119.141531 30.4121 113.671931 18.5102 104.870131 10C 102.964631 20.8139 96.542231 30.0781 87.609631 35.8006C 87.641731 36.2967 87.659031 36.7953 87.659031 37.2988C 87.659031 49.66 77.588531 59.6807 65.165831 59.6807L 65.123931 59.6929C 65.560831 61.2648 65.792831 62.9202 65.792831 64.6296C 65.792831 74.8368 57.477331 83.1087 47.221731 83.1087C 38.807431 83.1087 31.701431 77.5409 29.418231 69.9076L 29.408331 69.9076C 27.781831 70.19 26.108331 70.3349 24.400331 70.3349C 19.165131 70.3349 14.253331 68.9669 10.000531 66.5723L 10.000531 106.7849C 9.936331 115.3614 15.837931 123.1396 24.585431 125.1511C 30.035331 126.4062 35.625931 125.1241 39.856431 122.1425C 54.396931 127.4009 70.470131 121.1208 77.867531 108.1726L 77.865031 108.1775ZM 100.770275 58.651443C 105.807975 49.470843 104.164175 37.723643 96.102875 30.286743M 81.310747 94.23449C 78.395747 84.97529 70.487447 78.64599 61.456147 77.26329M 88.394623 76.858017C 91.882223 77.818317 95.068723 79.940417 97.314823 83.113717M 39.854035 122.14728C 47.105735 114.93148 47.105735 103.22848 39.854035 96.01268"></path></g></g></g><g id="g-root-sy_6_line_1q9gkzh6q2jnq-stroke" data-item-order="-96749" transform="translate(572, 350)"><g id="sy_6_line_1q9gkzh6q2jnq-stroke" fill="none" stroke-linecap="round" stroke-linejoin="round" stroke-miterlimit="4" stroke="#f4f4f4" stroke-width="2" stroke-opacity="1"><g><path d="M 52 10L 12 10"></path><path d="M 18 3.5L 11.5 10L 18 16.5" stroke-dasharray="none"></path></g></g></g><g id="g-root-sy_5_cu_1hdtkql6q2kgf-stroke" data-item-order="-96746" transform="translate(326, 251.0419921875)"><g id="sy_5_cu_1hdtkql6q2kgf-stroke" fill="none" stroke-linecap="round" stroke-linejoin="round" stroke-miterlimit="4" stroke="#2c2c2c" stroke-width="2" stroke-opacity="1"><g><path d="M 57.3583 108.172411C 49.9239 110.459011 41.6281 107.408611 37.6024 100.408911C 34.3986 94.836211 34.7318 88.212311 37.8986 83.108611C 28.734 77.302611 21.7316 68.424011 18.3402 57.934311C 18.239 58.079211 18.1353 58.221711 18.0366 58.369011C 12.9619 65.842711 10 74.851511 10 84.550311C 10 100.121611 17.6392 113.917111 29.3906 122.429711C 34.717 126.288111 40.8876 129.061011 47.5741 130.424111C 47.5741 130.424111 52.3971 131.185511 57.4471 131.234611C 61.5518 135.778311 67.3867 138.615011 73.8634 138.615011C 83.9857 138.615011 92.5456 131.681611 95.3693 122.142411C 80.8288 127.400711 64.7556 121.120711 57.3583 108.172411ZM 110.825429 70.3349C 109.117429 70.3349 107.443929 70.19 105.817329 69.91L 105.807529 69.91C 103.524329 77.5409 96.418329 83.1087 88.004029 83.1087C 77.746029 83.1087 69.432929 74.8344 69.432929 64.6296C 69.432929 62.9202 69.667429 61.2648 70.101829 59.6929L 70.059829 59.6806C 57.637129 59.6806 47.566729 49.66 47.566729 37.2988C 47.566729 36.7953 47.584029 36.2968 47.616129 35.8006C 38.683529 30.0781 32.261129 20.8115 30.355629 10C 21.553829 18.5077 16.084229 30.4096 16.084229 43.5863C 16.084229 48.5941 16.879029 53.4153 18.342629 57.9393C 21.734029 68.429 28.736429 77.3051 37.901029 83.1137C 34.731829 88.2173 34.398629 94.8412 37.604829 100.414C 41.630629 107.4161 49.926329 110.4665 57.360729 108.1775C 64.758029 121.1257 80.831329 127.4033 95.371729 122.1474C 99.602329 125.129 105.192929 126.4111 110.642829 125.156C 119.390229 123.1421 125.291829 115.3638 125.227629 106.7898L 125.227629 66.5772C 120.977329 68.9718 116.063029 70.3398 110.827929 70.3398L 110.825429 70.3349ZM 34.450463 58.646561C 29.412763 49.465961 31.056663 37.718761 39.117963 30.281861M 53.912659 94.229608C 56.827659 84.970408 64.735959 78.641108 73.767259 77.258408M 46.826206 76.853135C 43.338606 77.813435 40.152106 79.935535 37.906006 83.108835M 95.36684 122.142398C 88.11514 114.926598 88.11514 103.223598 95.36684 96.007798"></path></g></g></g><g id="g-root-sy_5_line_1ltn2v16q2kg0-stroke" data-item-order="-96741" transform="translate(278, 350)"><g id="sy_5_line_1ltn2v16q2kg0-stroke" fill="none" stroke-linecap="round" stroke-linejoin="round" stroke-miterlimit="4" stroke="#f4f4f4" stroke-width="2" stroke-opacity="1"><g><path d="M 10 10L 50 10"></path><path d="M 44 16.5L 50.5 10L 44 3.5" stroke-dasharray="none"></path></g></g></g><g id="g-root-sy_2_cu_1cy02m56q2l8p-stroke" data-item-order="-96738" transform="translate(450.77484130859375, 158)"><g id="sy_2_cu_1cy02m56q2l8p-stroke" fill="none" stroke-linecap="round" stroke-linejoin="round" stroke-miterlimit="4" stroke="#2c2c2c" stroke-width="2" stroke-opacity="1"><g><path d="M 61.7715 59.8943C 62.8156 63.0331 62.8131 66.5379 61.5173 69.8609C 59.481 75.0849 54.7864 78.4988 49.5685 79.1668L 46.5918 79.3436C 40.7741 79.8447 35.4624 83.5484 33.2089 89.3299C 31.7181 93.1539 31.8341 97.2015 33.2262 100.7406C 30.2396 99.127 26.8878 98.1839 23.2496 98.1839C 18.2291 98.1839 13.6185 99.9301 10 102.8479L 10 33.8284C 10 20.6666 20.7221 10 33.9469 10C 44.2568 10 53.0462 16.4839 56.4203 25.5786C 71.0941 29.8104 82.1888 42.4196 84.1313 57.8607C 81.2657 56.311 77.9657 55.4243 74.4756 55.4243C 69.6551 55.4243 65.2443 57.0969 61.769 59.8968L 61.7715 59.8943ZM 10.002392 64.604848C 9.938192 56.028348 15.839792 48.250148 24.587292 46.238648M 40.374137 59.793643C 49.748637 56.939743 55.025737 47.066443 52.157637 37.736043C 49.289537 28.407943 39.367137 23.156943 29.992737 26.010943M 56.422811 25.578614C 54.253211 26.597914 52.310711 28.172314 50.827311 30.262414C 50.343511 30.945214 49.928811 31.652614 49.580811 32.382014M 29.963135 72.385742C 32.999035 75.328042 36.817435 77.555642 41.208435 78.705142C 42.640035 79.080842 44.076535 79.326442 45.503235 79.449242"></path></g></g></g><g id="g-root-sy_2_line_1cy02m56q2l8q-stroke" data-item-order="-96733" transform="translate(518, 158)"><g id="sy_2_line_1cy02m56q2l8q-stroke" fill="none" stroke-linecap="round" stroke-linejoin="round" stroke-miterlimit="4" stroke="#f4f4f4" stroke-width="2" stroke-opacity="1"><g><path d="M 106 10L 22 10L 11.41 20.59"></path><path d="M 11.1 11.7L 11.1 20.9L 20.3 20.9" stroke-dasharray="none"></path></g></g></g><g id="g-root-sy_1_cu_18i6khp6q2m0z-stroke" data-item-order="-96730" transform="translate(367.0938415527344, 158)"><g id="sy_1_cu_18i6khp6q2m0z-stroke" fill="none" stroke-linecap="round" stroke-linejoin="round" stroke-miterlimit="4" stroke="#2c2c2c" stroke-width="2" stroke-opacity="1"><g><path d="M 32.3598 59.8943C 31.3158 63.0331 31.3182 66.5379 32.6141 69.8609C 34.6504 75.0849 39.345 78.4988 44.5629 79.1668L 47.5396 79.3436C 53.3572 79.8447 58.6689 83.5484 60.9224 89.3299C 62.4132 93.1539 62.2972 97.2015 60.9051 100.7406C 63.8917 99.127 67.2436 98.1839 70.8818 98.1839C 75.9022 98.1839 80.5129 99.9301 84.1313 102.8479L 84.1313 33.8284C 84.1313 20.6666 73.4093 10 60.1844 10C 49.8745 10 41.0851 16.4839 37.711 25.5786C 23.0373 29.8104 11.9425 42.4196 10 57.8607C 12.8656 56.311 16.1657 55.4243 19.6558 55.4243C 24.4763 55.4243 28.887 57.0969 32.3623 59.8968L 32.3598 59.8943ZM 84.128967 64.604848C 84.193067 56.028348 78.291567 48.250148 69.544067 46.238648M 53.757065 59.793643C 44.382665 56.939743 39.105565 47.066443 41.973665 37.736043C 44.841765 28.407943 54.764165 23.156943 64.138565 26.010943M 37.708557 25.578614C 39.878157 26.597914 41.820657 28.172314 43.304057 30.262414C 43.787857 30.945214 44.202557 31.652614 44.550557 32.382014M 64.168212 72.385742C 61.132212 75.328042 57.313912 77.555642 52.922912 78.705142C 51.491312 79.080842 50.054712 79.326442 48.628112 79.449242"></path></g></g></g><g id="g-root-sy_1_line_18i6khp6q2m10-stroke" data-item-order="-96725" transform="translate(277.9999694824219, 158)"><g id="sy_1_line_18i6khp6q2m10-stroke" fill="none" stroke-linecap="round" stroke-linejoin="round" stroke-miterlimit="4" stroke="#f4f4f4" stroke-width="2" stroke-opacity="1"><g><path d="M 10 10L 94 10L 104.59 20.59"></path><path d="M 95.7 20.9L 104.9 20.9L 104.9 11.7" stroke-dasharray="none"></path></g></g></g><g id="g-root-sy_4_cu_zn61bx6q2jnx-stroke" data-item-order="-96722" transform="translate(450.7747802734375, 203.424560546875)"><g id="sy_4_cu_zn61bx6q2jnx-stroke" fill="none" stroke-linecap="round" stroke-linejoin="round" stroke-miterlimit="4" stroke="#2c2c2c" stroke-width="2" stroke-opacity="1"><g><path d="M 23.8642 82.981C 36.7484 89.9292 52.8562 85.1694 59.8389 72.3489C 61.9418 68.488 62.9785 64.3348 63.0476 60.2283L 63.0895 57.6151C 63.2598 55.2131 63.9386 52.8087 65.1653 50.554C 67.4115 46.4279 71.0891 43.5691 75.2531 42.2502C 80.9843 35.5157 84.43 26.0526 84.43 16.538C 84.4029 15.1528 84.3017 13.7847 84.1338 12.4364C 81.2682 10.8866 77.9681 10 74.478 10C 69.6576 10 65.2468 11.6726 61.7715 14.4724C 62.8156 17.6112 62.8131 21.116 61.5173 24.439C 59.481 29.663 54.7864 33.0769 49.5685 33.7449L 46.5918 33.9218C 40.7741 34.4228 35.4624 38.1265 33.2089 43.908C 31.7181 47.732 31.8341 51.7796 33.2262 55.3187C 30.2396 53.7051 26.8878 52.762 23.2496 52.762C 18.2291 52.762 13.6185 54.5082 10 57.426L 10 61.0806C 10.4542 69.9739 15.4178 78.4276 23.8617 82.981L 23.8642 82.981ZM 105.457044 50.890523C 105.457044 35.933323 96.919344 22.962923 84.432444 16.535523C 84.432444 26.052623 80.986844 35.513323 75.255544 42.250223C 71.091644 43.569123 67.413944 46.430323 65.167844 50.554023C 63.938644 52.808723 63.262344 55.213123 63.092044 57.615123L 63.050044 60.228323C 62.980944 64.334823 61.944244 68.488023 59.841344 72.348923C 52.858644 85.169323 36.750844 89.929123 23.866644 82.981023C 15.422744 78.427523 10.459144 69.973923 10.004944 61.080623L 10.004944 114.189823C 14.255244 116.584523 19.169544 117.952523 24.404744 117.952523C 26.112744 117.952523 27.786144 117.807623 29.412744 117.527623L 29.422644 117.527623C 31.705744 125.158523 38.811844 130.726323 47.226144 130.726323C 57.484144 130.726323 65.797244 122.451923 65.797244 112.247123C 65.797244 110.537723 65.562744 108.882323 65.128344 107.310523L 65.170244 107.298223C 77.592944 107.298223 87.663444 97.277623 87.663444 84.916423C 87.663444 84.412923 87.614044 83.418223 87.614044 83.418223C 96.546644 77.695623 102.969044 68.429023 104.874544 57.617623C 105.259544 55.434123 105.461944 53.186923 105.461944 50.895423L 105.457044 50.890523ZM 76.413147 65.526001C 82.726947 69.160901 87.103147 75.762701 87.611547 83.415701M 48.24548 100.1954C 44.77508 96.2559 42.67218 91.0958 42.67218 85.4469M 75.253052 42.250237C 79.634152 40.862537 84.553452 41.184237 88.914752 43.534737M 55.934021 77.901978C 57.718521 80.782878 60.255921 83.258578 63.447321 85.007278C 64.488921 85.577078 65.557721 86.048678 66.646221 86.421978M 33.228638 55.318726C 34.331938 58.123526 36.237438 60.609026 38.784638 62.406826M 31.821786 101.914566C 29.819986 104.864266 28.650086 108.420566 28.650086 112.247066C 28.650086 114.081766 28.919086 115.852566 29.417686 117.525066"></path></g></g></g><g id="g-root-sy_4_line_zn61bx6q2jny-stroke" data-item-order="-96717" transform="translate(562, 254)"><g id="sy_4_line_zn61bx6q2jny-stroke" fill="none" stroke-linecap="round" stroke-linejoin="round" stroke-miterlimit="4" stroke="#f4f4f4" stroke-width="2" stroke-opacity="1"><g><path d="M 62 10L 12 10"></path><path d="M 18 3.5L 11.5 10L 18 16.5" stroke-dasharray="none"></path></g></g></g><g id="g-root-sy_3_cu_v7cj7h6q2kg7-stroke" data-item-order="-96714" transform="translate(345.77069091796875, 203.42431640625)"><g id="sy_3_cu_v7cj7h6q2kg7-stroke" fill="none" stroke-linecap="round" stroke-linejoin="round" stroke-miterlimit="4" stroke="#2c2c2c" stroke-width="2" stroke-opacity="1"><g><path d="M 40.201434 42.2502C 44.365334 43.5691 48.043034 46.4303 50.289134 50.554C 51.518334 52.8087 52.194634 55.2131 52.364934 57.6151L 52.406934 60.2283C 52.476034 64.3348 53.510234 68.488 55.615634 72.3489C 62.598334 85.1694 78.706134 89.9292 91.590334 82.981C 100.034234 78.4276 104.997834 69.9739 105.452034 61.0806L 105.452034 57.426C 101.833534 54.5082 97.222934 52.762 92.202534 52.762C 88.566734 52.762 85.212434 53.7051 82.225834 55.3187C 83.617934 51.7796 83.731434 47.7296 82.243134 43.908C 79.989634 38.1265 74.677934 34.4228 68.860234 33.9218L 65.883534 33.7449C 60.665734 33.0769 55.971034 29.663 53.934734 24.439C 52.638934 21.116 52.636434 17.6112 53.680534 14.4724C 50.205234 11.6726 45.794534 10 40.974034 10C 37.483934 10 34.183834 10.8891 31.318234 12.4364C 31.147934 13.7823 31.049234 15.1503 31.022034 16.538C 31.022034 26.0551 34.467734 35.5157 40.198934 42.2526L 40.201434 42.2502ZM 91.5904 82.980942C 78.7061 89.929042 62.5984 85.169242 55.6157 72.348742C 53.5127 68.487842 52.4761 64.334742 52.407 60.228242L 52.365 57.615042C 52.1947 55.213042 51.5159 52.808542 50.2892 50.553942C 48.0431 46.427742 44.3654 43.568942 40.2015 42.250042C 34.4702 35.515642 31.0245 26.052542 31.0245 16.537842C 18.5352 22.965242 10 35.938042 10 50.892842C 10 53.186742 10.2024 55.431542 10.5874 57.615042C 12.4929 68.428942 18.9153 77.693042 27.8479 83.415642C 27.8479 83.415642 27.7985 84.410342 27.7985 84.913842C 27.7985 97.275042 37.869 107.295642 50.2917 107.295642L 50.3336 107.307942C 49.8968 108.879742 49.6647 110.535142 49.6647 112.244542C 49.6647 122.451842 57.9803 130.723742 68.2358 130.723742C 76.6501 130.723742 83.7562 125.155942 86.0393 117.522542L 86.0492 117.522542C 87.6757 117.804942 89.3492 117.949942 91.0572 117.949942C 96.2924 117.949942 101.2042 116.581842 105.457 114.187242L 105.457 61.078042C 105.0028 69.971342 100.0392 78.424942 91.5953 82.978442L 91.5904 82.980942ZM 39.041356 65.526001C 32.727656 69.160901 28.351456 75.762701 27.842956 83.415701M 67.209045 100.1954C 70.679445 96.2559 72.782345 91.0958 72.782345 85.4469M 40.201373 42.250237C 35.820273 40.862537 30.901073 41.184237 26.539673 43.534737M 59.520427 77.901978C 57.735927 80.782878 55.198527 83.258578 52.007027 85.007278C 50.965427 85.577078 49.896727 86.048678 48.808227 86.421978M 82.225861 55.318726C 81.122561 58.123526 79.217061 60.609026 76.669861 62.406826M 83.635193 101.914566C 85.636893 104.864266 86.806893 108.420566 86.806893 112.247066C 86.806893 114.081766 86.537893 115.852566 86.039293 117.525066"></path></g></g></g><g id="g-root-sy_3_line_qrj1316q2l8g-stroke" data-item-order="-96709" transform="translate(278, 254)"><g id="sy_3_line_qrj1316q2l8g-stroke" fill="none" stroke-linecap="round" stroke-linejoin="round" stroke-miterlimit="4" stroke="#f4f4f4" stroke-width="2" stroke-opacity="1"><g><path d="M 10 10L 60 10"></path><path d="M 54 16.5L 60.5 10L 54 3.5" stroke-dasharray="none"></path></g></g></g><g id="g-root-ic_mosc_dgozst6q2jnm-stroke" data-item-order="-1296" transform="translate(230, 140)"></g><g id="g-root-ic_1_1lpwbi56pye4m-stroke" data-item-order="-1296" transform="translate(626, 140)"></g><g id="g-root-ic_down_1ltn2v16q3xu6-stroke" data-item-order="-1296" transform="translate(230, 428)"></g><g id="g-root-ic_node_v97ygt6q2jgj-stroke" data-item-order="-1296" transform="translate(230, 236)"></g><g id="g-root-ic_2_1qcl1kt6pwydh-stroke" data-item-order="-1296" transform="translate(626, 236)"></g><g id="g-root-ic_conv_qwitrx6q2kn8-stroke" data-item-order="-1296" transform="translate(230, 332)"></g><g id="g-root-tx_createvi_dg2p196pohky-stroke" data-item-order="0" transform="translate(86, 338)"></g><g id="g-root-ic_chec_7qgxp6pspor-stroke" data-item-order="0" transform="translate(626, 332)"><g id="ic_chec_7qgxp6pspor-stroke" fill="none" stroke-linecap="round" stroke-linejoin="round" stroke-miterlimit="4" stroke="#f4f4f4" stroke-width="2" stroke-opacity="1"><g><path d="M 16.75 21.25C 16.75 22.906855 18.093145 24.25 19.75 24.25C 21.406855 24.25 22.75 22.906855 22.75 21.25C 22.75 19.593145 21.406855 18.25 19.75 18.25C 18.093145 18.25 16.75 19.593145 16.75 21.25M 10 10M 28.24 26.755001L 27.295 25.255001C 27.158094 25.030104 26.913284 24.893467 26.650002 24.895C 26.388205 24.899137 26.14595 25.034349 26.004999 25.254999L 22 31.599998L 20.365 29.02C 20.228094 28.795105 19.983286 28.658466 19.719999 28.66C 19.45747 28.661373 19.213985 28.797274 19.074999 29.019999L 14.5 36.25L 22 36.25M 22.585001 45.25L 12.265 45.25C 11.436573 45.25 10.765 44.578426 10.765 43.75L 10.765 12.25C 10.765 11.421573 11.436573 10.75 12.265 10.75L 32.095001 10.75C 32.497047 10.753235 32.882946 10.908666 33.174999 11.184999L 38.800003 16.75C 39.086285 17.030607 39.248337 17.414131 39.25 17.815001L 39.25 24.25M 38.635002 32.709999L 43.195 34.75L 45.25 30.145M 26.98 32.889999C 28.25271 29.178123 31.93704 26.852102 35.835484 27.299286C 39.733925 27.746471 42.795856 30.846348 43.195 34.75M 31.57 39.790001L 27.01 37.75L 24.955 42.355M 43.224998 39.595001C 41.954399 43.30603 38.273285 45.633503 34.375912 45.190048C 30.47854 44.74659 27.414408 41.651619 27.01 37.75"></path></g></g></g><g id="g-root-tx__1ut13y56pok5n-stroke" data-item-order="0" transform="translate(674, 242)"></g><g id="g-root-tx_mcp_1lt0s3h6poidk-stroke" data-item-order="0" transform="translate(170, 146)"></g><g id="g-root-tx_zod_v6q8fx6poidl-stroke" data-item-order="0" transform="translate(170, 242)"></g><g id="g-root-tx_napkinai_qrj1316q2l8h-stroke" data-item-order="0" transform="translate(350, 14)"></g><g id="g-root-tx_download_1lu9q9p6pokjn-stroke" data-item-order="0" transform="translate(50, 434)"></g><g id="g-root-tx_stdio_mg30vx6pojd3-stroke" data-item-order="0" transform="translate(674, 146)"></g><g id="g-root-tx_getvisua_1qbynnh6poirr-stroke" data-item-order="0" transform="translate(674, 338)"></g></g></g><path id="wzissyb8y2427" d="M65.283 12.757a.35.35 0 0 0 .584.157l5.203-5.141-6.183 3.523.396 1.461zm-2.216-11.7a.35.35 0 0 0-.522.305v3.111l3.276-1.868-2.754-1.548zm3.728 2.105l-4.25 2.421v2.445l6.391-3.644-2.141-1.222zm4.708 3.303a.35.35 0 0 0 0-.609l-1.592-.9-7.365 4.199v1.782a.35.35 0 0 0 .523.305l8.435-4.777z M44.542 2.513c0-.433.355-.783.792-.783s.792.35.792.783-.355.783-.792.783-.792-.35-.792-.783zm59.171 0c0-.433.355-.783.792-.783s.792.35.792.783-.355.783-.792.783-.792-.35-.792-.783zm-85.951 7.636h-1.27v-.487c-.276.201-.864.609-1.881.609-1.202 0-2.274-.794-2.137-2.078.118-1.106 1.153-1.584 1.848-1.727l2.17-.345c0-.539-.29-.956-1.064-1.006s-1.21.305-1.571 1.017l-1.124-.605c1.218-2.631 5.029-1.764 5.029.414v4.207zm-1.27-2.86c.006.396-.062 1.112-.819 1.59-.587.37-1.841.299-1.903-.395-.049-.555.461-.791.906-.898l1.816-.297zm72.662 2.86h-1.27v-.487c-.276.201-.864.609-1.881.609-1.202 0-2.274-.794-2.137-2.078.118-1.106 1.153-1.584 1.848-1.727l2.17-.345c0-.539-.29-.956-1.064-1.006s-1.21.305-1.571 1.017l-1.124-.605c1.218-2.631 5.029-1.764 5.029.414v4.207zm-1.27-2.86c.006.396-.062 1.112-.82 1.59-.587.37-1.841.299-1.903-.395-.049-.555.461-.791.906-.898l1.816-.297zM99.096 10.149H97.85v-8.45h1.246v4.895l2.68-2.559h1.738l-2.633 2.535 2.715 3.578h-1.556l-2.077-2.707-.867.844v1.863zm6.053-6.114h-1.255v6.113h1.255V4.035zm-59.2 0h-1.255v6.113h1.255V4.035zm5.584 6.113V1.697h1.255v2.695c.361-.346 1-.485 1.47-.485 1.452 0 2.477 1.082 2.457 2.448v3.792h-1.27v-3.68c0-.408-.214-1.339-1.315-1.339-.968 0-1.342.756-1.342 1.339v3.681h-1.255zm-4.76-4.894V4.039h.621a.45.45 0 0 0 .45-.45v-.855h1.251v1.305h1.309v1.215h-1.309v3.109c0 .293.105.664.648.664.365 0 .531-.035.736-.07v1.137s-.361.113-.857.113c-1.398 0-1.777-1.051-1.777-1.788V5.254h-1.071zM36.528 4.039h-1.394l2.191 6.106h1.125l1.234-3.918 1.238 3.918h1.129l2.188-6.106h-1.383l-1.359 3.93-1.256-3.93h-1.124l-1.242 3.957-1.348-3.957zM26.212 7.141c-.02 1.566 1.187 3.129 3.223 3.129 1.566 0 2.383-.918 2.734-1.719L31.172 8c-.315.399-.801 1.094-1.738 1.094-1.145 0-1.825-.781-1.891-1.52h4.625c.074-.284.148-.995-.03-1.559-.336-1.064-1.221-2.102-2.839-2.102s-3.088 1.152-3.088 3.227zm1.363-.75h3.348c-.055-.43-.566-1.301-1.623-1.301a1.79 1.79 0 0 0-1.725 1.301zm-8.758.75c.038 1.758 1.277 3.133 3.145 3.133 1.074 0 1.723-.477 1.961-.672v.547h1.242V1.703h-1.258v2.888c-.414-.36-1.062-.68-1.93-.68-1.91 0-3.198 1.473-3.16 3.23zm1.309-.08c0 1.119.723 1.978 1.836 1.978a1.88 1.88 0 0 0 1.94-1.904c0-1.371-1.011-1.99-1.972-1.99s-1.805.798-1.805 1.916zm76.683-.028C96.771 5.275 95.532 3.9 93.664 3.9c-1.074 0-1.723.477-1.961.672v-.547h-1.242v8.22h1.258V9.583c.414.36 1.063.68 1.93.68 1.91 0 3.198-1.473 3.16-3.23zm-1.309.08c0-1.119-.723-1.978-1.836-1.978a1.88 1.88 0 0 0-1.94 1.904c0 1.371 1.011 1.99 1.972 1.99S95.5 8.231 95.5 7.113zM106.441 10.173V4.036h1.254v.382c.361-.346 1-.485 1.47-.485 1.452 0 2.477 1.082 2.457 2.448v3.792h-1.27V6.492c0-.408-.214-1.339-1.315-1.339-.969 0-1.342.756-1.342 1.339v3.681h-1.254zm-30.383-.021V1.824h1.084l4.215 5.777V1.824h1.32v8.328h-1.094l-4.207-5.796v5.796h-1.319zM5.24 10.149H4V2.377h1.014l2.664 3.597 2.654-3.592h1.03v7.766h-1.256V4.762L7.678 8.068 5.24 4.742v5.407z" transform="translate(740, 488)" fill="#ababab88" stroke="none"></path></svg>